<svg width="1066" height="148" viewBox="0 0 1066 148" fill="none" xmlns="http://www.w3.org/2000/svg">
<path d="M563 31L565.828 31.1192V31.1376L563 31Z" fill="#1D1D1B"/>
<path d="M571.451 31.6514L576.982 32.6234L576.959 32.6968L571.439 31.7064L571.451 31.6514Z" fill="#1D1D1B"/>
<path d="M582.365 34.063C584.125 34.6224 585.84 35.2551 587.521 35.9704L587.442 36.0988C585.783 35.3835 584.068 34.7324 582.319 34.1639L582.365 34.063Z" fill="#1D1D1B"/>
<path d="M592.394 38.3086L596.96 41.0139L596.801 41.1698L592.27 38.4553L592.394 38.3086Z" fill="#1D1D1B"/>
<path d="M601.253 44.0034L605.308 47.2039L605.058 47.3873L601.049 44.1777L601.253 44.0034Z" fill="#1D1D1B"/>
<path d="M609.157 50.5513L612.871 54.0085L612.553 54.2194L608.885 50.753L609.157 50.5513Z" fill="#1D1D1B"/>
<path d="M616.495 57.521L620.05 61.0699L619.663 61.3267L616.143 57.7503L616.495 57.521Z" fill="#1D1D1B"/>
<path d="M623.593 64.6372L627.137 68.2045L626.694 68.4888L623.185 64.9031L623.593 64.6372Z" fill="#1D1D1B"/>
<path d="M630.704 71.7441L634.316 75.2656L633.85 75.5682L630.25 72.0468L630.704 71.7441Z" fill="#1D1D1B"/>
<path d="M637.972 78.7412L641.709 82.1709L641.243 82.5102L637.518 79.0622L637.972 78.7412Z" fill="#1D1D1B"/>
<path d="M645.515 85.5454L649.399 88.8651L648.933 89.2227L645.049 85.8939L645.515 85.5454Z" fill="#1D1D1B"/>
<path d="M653.362 92.1118L657.451 95.2573L656.985 95.6608L652.896 92.497L653.362 92.1118Z" fill="#1D1D1B"/>
<path d="M661.688 98.2739L666.072 101.144L665.64 101.594L661.233 98.6958L661.688 98.2739Z" fill="#1D1D1B"/>
<path d="M670.604 103.859L675.272 106.417L674.874 106.913L670.184 104.336L670.604 103.859Z" fill="#1D1D1B"/>
<path d="M680.098 108.783L685.05 110.947L684.71 111.498L679.724 109.306L680.098 108.783Z" fill="#1D1D1B"/>
<path d="M690.161 112.892L695.397 114.57L695.125 115.166L689.854 113.46L690.161 112.892Z" fill="#1D1D1B"/>
<path d="M700.759 115.955L706.233 117.018L706.074 117.66L700.543 116.578L700.759 115.955Z" fill="#1D1D1B"/>
<path d="M711.798 117.715L717.409 118.009L717.386 118.687L711.707 118.376L711.798 117.715Z" fill="#1D1D1B"/>
<path d="M723.03 117.908L728.664 117.596L728.743 118.293L723.076 118.596L723.03 117.908Z" fill="#1D1D1B"/>
<path d="M734.275 117.101L739.852 116.404L740.011 117.11L734.389 117.807L734.275 117.101Z" fill="#1D1D1B"/>
<path d="M745.372 115.469L750.812 114.276L751.074 114.992L745.577 116.175L745.372 115.469Z" fill="#1D1D1B"/>
<path d="M756.15 112.837L761.364 111.122L761.75 111.819L756.468 113.543L756.15 112.837Z" fill="#1D1D1B"/>
<path d="M766.44 109.151L771.381 106.94L771.869 107.619L766.883 109.838L766.44 109.151Z" fill="#1D1D1B"/>
<path d="M776.174 104.538L780.842 101.988L781.421 102.649L776.708 105.207L776.174 104.538Z" fill="#1D1D1B"/>
<path d="M785.441 99.3289L790.007 96.6328L790.609 97.3023L786.043 99.9984L785.441 99.3289Z" fill="#1D1D1B"/>
<path d="M794.573 93.9367C796.118 93.0471 797.651 92.1576 799.15 91.2681L799.786 91.9467C798.253 92.8545 796.708 93.7349 795.175 94.6153L794.573 93.9367Z" fill="#1D1D1B"/>
<path d="M803.512 88.3885L807.544 85.2339L808.327 85.8391L804.216 89.0396L803.512 88.3885Z" fill="#1D1D1B"/>
<path d="M811.155 81.7856C812.28 80.5843 813.302 79.328 814.211 78.0166L815.187 78.4568C814.256 79.8048 813.188 81.0979 812.041 82.3267L811.155 81.7856Z" fill="#1D1D1B"/>
<path d="M816.482 73.9175C817.084 72.5052 817.505 71.0471 817.698 69.5615L818.822 69.6624C818.618 71.2214 818.175 72.7437 817.55 74.2109L816.482 73.9175Z" fill="#1D1D1B"/>
<path d="M817.584 65.123C817.436 64.3893 817.243 63.6649 816.982 62.9588C816.732 62.2435 816.38 61.5557 816.039 60.8587L817.061 60.5103C817.413 61.2255 817.788 61.95 818.049 62.702C818.333 63.454 818.538 64.2151 818.697 64.9854L817.584 65.123Z" fill="#1D1D1B"/>
<path d="M813.324 56.98C812.223 55.797 810.916 54.7424 809.395 53.9446L809.985 53.2109C811.632 54.073 813.04 55.2009 814.199 56.4481L813.324 56.98Z" fill="#1D1D1B"/>
<path d="M804.351 52.3854C803.443 52.3029 802.546 52.2112 801.626 52.257C800.717 52.2845 799.797 52.3762 798.9 52.523L798.695 51.6885C799.649 51.5326 800.615 51.4317 801.592 51.4042C802.568 51.3583 803.545 51.4409 804.522 51.5326L804.351 52.3854Z" fill="#1D1D1B"/>
<path d="M793.711 53.9996C792.064 54.6782 790.53 55.5219 789.167 56.5215L788.475 55.9163C789.906 54.8525 791.518 53.963 793.234 53.2568L793.711 53.9996Z" fill="#1D1D1B"/>
<path d="M785.839 59.9966C785.442 60.6477 785.101 61.363 784.794 62.0599C784.499 62.7661 784.249 63.4905 784.045 64.215L783.079 64.0407C783.284 63.2796 783.545 62.5368 783.851 61.794C784.169 61.0512 784.51 60.3451 784.942 59.6206L785.839 59.9966Z" fill="#1D1D1B"/>
<path d="M783.397 68.681C783.363 70.1758 783.511 71.6798 783.806 73.1654L782.852 73.2938C782.546 71.7715 782.387 70.2217 782.409 68.6719L783.397 68.681Z" fill="#1D1D1B"/>
<path d="M785.135 77.54L786.089 79.6676C786.259 80.016 786.475 80.3462 786.657 80.6947L787.236 81.7126L786.407 82.0611L785.805 81.0065C785.612 80.658 785.384 80.3095 785.214 79.9519L784.237 77.7785L785.135 77.54Z" fill="#1D1D1B"/>
<path d="M790.132 85.582L793.494 89.2227L792.79 89.6904L789.371 86.0039L790.132 85.582Z" fill="#1D1D1B"/>
<path d="M797.151 92.6802L801.047 95.9724L800.422 96.4767L796.492 93.1662L797.151 92.6802Z" fill="#1D1D1B"/>
<path d="M805.148 99.0996L809.452 102.034L808.93 102.575L804.568 99.6223L805.148 99.0996Z" fill="#1D1D1B"/>
<path d="M814.007 104.703L816.392 105.886L818.856 106.995L818.459 107.582L815.983 106.473L813.541 105.271L814.007 104.703Z" fill="#1D1D1B"/>
<path d="M823.843 109.15L828.885 111.195L828.533 111.782L823.468 109.737L823.843 109.15Z" fill="#1D1D1B"/>
<path d="M834.007 113.112L839.221 114.845L838.948 115.432L833.689 113.69L834.007 113.112Z" fill="#1D1D1B"/>
<path d="M844.548 116.331C846.342 116.771 848.16 117.147 850 117.431L849.863 118.027C847.989 117.752 846.149 117.367 844.332 116.927L844.548 116.331Z" fill="#1D1D1B"/>
<path d="M855.575 117.89L861.209 117.88L861.243 118.458L855.553 118.486L855.575 117.89Z" fill="#1D1D1B"/>
<path d="M866.809 117.44C868.66 117.211 870.5 116.908 872.317 116.514L872.499 117.055C870.659 117.459 868.796 117.771 866.922 118.009L866.809 117.44Z" fill="#1D1D1B"/>
<path d="M877.633 115.065C879.371 114.497 881.051 113.827 882.687 113.084L883.016 113.552C881.37 114.313 879.654 114.992 877.894 115.57L877.633 115.065Z" fill="#1D1D1B"/>
<path d="M887.389 110.599C888.888 109.691 890.319 108.71 891.693 107.674L892.136 108.05C890.762 109.104 889.308 110.104 887.786 111.021L887.389 110.599Z" fill="#1D1D1B"/>
<path d="M895.578 104.391L899.122 100.842L899.61 101.135L896.055 104.721L895.578 104.391Z" fill="#1D1D1B"/>
<path d="M902.393 97.1276C903.449 95.8713 904.562 94.6241 905.641 93.377L906.118 93.6521C905.039 94.8992 903.937 96.1372 902.881 97.4028L902.393 97.1276Z" fill="#1D1D1B"/>
<path d="M909.07 89.7183L912.716 86.2061L913.114 86.4903L909.525 90.0118L909.07 89.7183Z" fill="#1D1D1B"/>
<path d="M916.602 82.8588L920.781 79.75L921.077 80.0343L916.954 83.143L916.602 82.8588Z" fill="#1D1D1B"/>
<path d="M925.29 76.953C926.846 76.0819 928.47 75.284 930.14 74.5596L930.322 74.8255C928.663 75.55 927.073 76.357 925.529 77.2282L925.29 76.953Z" fill="#1D1D1B"/>
<path d="M935.307 72.6612C937.078 72.111 938.884 71.6525 940.724 71.2856L940.792 71.5149C938.975 71.8909 937.181 72.3586 935.432 72.918L935.307 72.6612Z" fill="#1D1D1B"/>
<path d="M946.29 70.405C948.164 70.1941 950.049 70.0749 951.946 70.0474V70.2216C950.061 70.2583 948.187 70.3867 946.324 70.6068L946.29 70.405Z" fill="#1D1D1B"/>
<path d="M957.614 70.2402C959.499 70.3961 961.362 70.6437 963.213 70.983L963.179 71.0931C961.339 70.7538 959.477 70.5245 957.603 70.3778L957.614 70.2402Z" fill="#1D1D1B"/>
<path d="M968.619 72.3403C970.379 72.8997 972.083 73.5783 973.685 74.3945L973.65 74.4312C972.049 73.6334 970.345 72.9639 968.585 72.4137L968.619 72.3403Z" fill="#1D1D1B"/>
<path d="M978.149 77.2646L980 78.9979L978.138 77.2738L978.149 77.2646Z" fill="#1D1D1B"/>
<path d="M469 21L465.825 21.1314V21.1517L469 21Z" fill="#1D1D1B"/>
<path d="M459.514 21.7178L453.304 22.7896L453.329 22.8705L459.526 21.7784L459.514 21.7178Z" fill="#1D1D1B"/>
<path d="M447.26 24.3774C445.283 24.9943 443.358 25.692 441.471 26.4807L441.56 26.6222C443.421 25.8335 445.347 25.1156 447.311 24.4887L447.26 24.3774Z" fill="#1D1D1B"/>
<path d="M436 29.0591L430.875 32.042L431.053 32.2139L436.141 29.2209L436 29.0591Z" fill="#1D1D1B"/>
<path d="M426.055 35.3384L421.503 38.8673L421.783 39.0696L426.284 35.5305L426.055 35.3384Z" fill="#1D1D1B"/>
<path d="M417.18 42.5581L413.011 46.3702L413.368 46.6028L417.486 42.7806L417.18 42.5581Z" fill="#1D1D1B"/>
<path d="M408.943 50.2427L404.952 54.1559L405.385 54.439L409.338 50.4955L408.943 50.2427Z" fill="#1D1D1B"/>
<path d="M400.974 58.0894L396.995 62.0228L397.493 62.3362L401.433 58.3826L400.974 58.0894Z" fill="#1D1D1B"/>
<path d="M392.992 65.9258L388.937 69.8087L389.46 70.1423L393.502 66.2595L392.992 65.9258Z" fill="#1D1D1B"/>
<path d="M384.831 73.6411L380.636 77.4229L381.159 77.797L385.341 73.995L384.831 73.6411Z" fill="#1D1D1B"/>
<path d="M376.364 81.144L372.003 84.8045L372.526 85.1988L376.887 81.5283L376.364 81.144Z" fill="#1D1D1B"/>
<path d="M367.553 88.3838L362.963 91.8521L363.486 92.297L368.076 88.8085L367.553 88.3838Z" fill="#1D1D1B"/>
<path d="M358.207 95.1787L353.285 98.3437L353.769 98.8391L358.717 95.6438L358.207 95.1787Z" fill="#1D1D1B"/>
<path d="M348.197 101.337L342.957 104.158L343.403 104.704L348.669 101.863L348.197 101.337Z" fill="#1D1D1B"/>
<path d="M337.538 106.767L331.979 109.153L332.361 109.76L337.959 107.343L337.538 106.767Z" fill="#1D1D1B"/>
<path d="M326.241 111.297L320.362 113.147L320.669 113.805L326.585 111.924L326.241 111.297Z" fill="#1D1D1B"/>
<path d="M314.344 114.674L308.198 115.847L308.376 116.555L314.586 115.362L314.344 114.674Z" fill="#1D1D1B"/>
<path d="M301.95 116.616L295.651 116.939L295.676 117.688L302.052 117.344L301.95 116.616Z" fill="#1D1D1B"/>
<path d="M289.34 116.828L283.015 116.484L282.926 117.253L289.289 117.587L289.34 116.828Z" fill="#1D1D1B"/>
<path d="M276.716 115.938L270.455 115.169L270.277 115.948L276.588 116.717L276.716 115.938Z" fill="#1D1D1B"/>
<path d="M264.258 114.138L258.15 112.824L257.857 113.612L264.028 114.917L264.258 114.138Z" fill="#1D1D1B"/>
<path d="M252.157 111.236L246.305 109.345L245.871 110.114L251.8 112.015L252.157 111.236Z" fill="#1D1D1B"/>
<path d="M240.605 107.171L235.059 104.734L234.511 105.483L240.108 107.93L240.605 107.171Z" fill="#1D1D1B"/>
<path d="M229.678 102.085L224.437 99.2744L223.787 100.002L229.078 102.824L229.678 102.085Z" fill="#1D1D1B"/>
<path d="M219.272 96.342L214.147 93.3691L213.471 94.1073L218.597 97.0801L219.272 96.342Z" fill="#1D1D1B"/>
<path d="M209.021 90.3961C207.287 89.4153 205.566 88.4344 203.883 87.4536L203.169 88.2019C204.89 89.2029 206.624 90.1736 208.346 91.1444L209.021 90.3961Z" fill="#1D1D1B"/>
<path d="M198.986 84.2787L194.46 80.8003L193.58 81.4677L198.196 84.9966L198.986 84.2787Z" fill="#1D1D1B"/>
<path d="M190.404 76.9982C189.142 75.6735 187.994 74.2882 186.974 72.8423L185.878 73.3276C186.923 74.814 188.122 76.2398 189.41 77.5947L190.404 76.9982Z" fill="#1D1D1B"/>
<path d="M184.425 68.3226C183.749 66.7654 183.277 65.1576 183.06 63.5195L181.798 63.6308C182.028 65.3497 182.525 67.0283 183.226 68.6461L184.425 68.3226Z" fill="#1D1D1B"/>
<path d="M183.188 58.6252C183.353 57.8163 183.57 57.0175 183.864 56.2389C184.144 55.4502 184.539 54.6918 184.922 53.9233L183.774 53.5391C183.379 54.3278 182.958 55.1266 182.665 55.9557C182.346 56.7849 182.117 57.6242 181.938 58.4735L183.188 58.6252Z" fill="#1D1D1B"/>
<path d="M187.969 49.6461C189.206 48.3417 190.672 47.1789 192.381 46.2992L191.718 45.4902C189.869 46.4407 188.288 47.6845 186.987 49.0596L187.969 49.6461Z" fill="#1D1D1B"/>
<path d="M198.043 44.5802C199.063 44.4892 200.07 44.3881 201.103 44.4387C202.123 44.469 203.156 44.5701 204.163 44.7319L204.393 43.8118C203.321 43.6399 202.238 43.5286 201.141 43.4983C200.045 43.4477 198.948 43.5387 197.851 43.6399L198.043 44.5802Z" fill="#1D1D1B"/>
<path d="M209.99 46.3601C211.839 47.1083 213.56 48.0386 215.09 49.1408L215.868 48.4734C214.262 47.3004 212.451 46.3196 210.526 45.541L209.99 46.3601Z" fill="#1D1D1B"/>
<path d="M218.826 52.9732C219.273 53.6911 219.655 54.4798 219.999 55.2483C220.331 56.0269 220.611 56.8257 220.841 57.6245L221.925 57.4324C221.695 56.5931 221.402 55.7741 221.058 54.9551C220.701 54.136 220.318 53.3574 219.834 52.5586L218.826 52.9732Z" fill="#1D1D1B"/>
<path d="M221.568 62.5487C221.606 64.1969 221.44 65.8552 221.109 67.4933L222.18 67.6348C222.524 65.9563 222.703 64.2474 222.677 62.5386L221.568 62.5487Z" fill="#1D1D1B"/>
<path d="M219.617 72.3164L218.546 74.6623C218.354 75.0465 218.112 75.4106 217.908 75.7948L217.258 76.9172L218.189 77.3014L218.864 76.1386C219.081 75.7544 219.336 75.3701 219.527 74.9758L220.624 72.5793L219.617 72.3164Z" fill="#1D1D1B"/>
<path d="M214.007 81.1846L210.233 85.1989L211.023 85.7146L214.861 81.6497L214.007 81.1846Z" fill="#1D1D1B"/>
<path d="M206.127 89.0107L201.753 92.6408L202.454 93.197L206.866 89.5467L206.127 89.0107Z" fill="#1D1D1B"/>
<path d="M197.15 96.0889L192.318 99.3246L192.904 99.9212L197.801 96.6652L197.15 96.0889Z" fill="#1D1D1B"/>
<path d="M187.204 102.267L184.526 103.571L181.759 104.795L182.205 105.442L184.985 104.219L187.727 102.894L187.204 102.267Z" fill="#1D1D1B"/>
<path d="M176.162 107.171L170.501 109.426L170.896 110.073L176.583 107.819L176.162 107.171Z" fill="#1D1D1B"/>
<path d="M164.749 111.54L158.897 113.451L159.203 114.098L165.106 112.177L164.749 111.54Z" fill="#1D1D1B"/>
<path d="M152.917 115.089C150.902 115.574 148.862 115.989 146.796 116.302L146.949 116.96C149.053 116.656 151.119 116.231 153.159 115.746L152.917 115.089Z" fill="#1D1D1B"/>
<path d="M140.536 116.807L134.212 116.797L134.173 117.434L140.562 117.465L140.536 116.807Z" fill="#1D1D1B"/>
<path d="M127.926 116.312C125.847 116.06 123.782 115.726 121.742 115.291L121.538 115.888C123.603 116.333 125.694 116.676 127.798 116.939L127.926 116.312Z" fill="#1D1D1B"/>
<path d="M115.773 113.693C113.823 113.066 111.935 112.328 110.099 111.509L109.73 112.025C111.578 112.864 113.504 113.612 115.48 114.25L115.773 113.693Z" fill="#1D1D1B"/>
<path d="M104.82 108.769C103.137 107.768 101.531 106.686 99.9877 105.543L99.4904 105.958C101.033 107.121 102.665 108.223 104.374 109.234L104.82 108.769Z" fill="#1D1D1B"/>
<path d="M95.627 101.923L91.6487 98.0103L91.1004 98.3338L95.0914 102.287L95.627 101.923Z" fill="#1D1D1B"/>
<path d="M87.9766 93.915C86.7907 92.5297 85.5412 91.1545 84.3298 89.7793L83.7942 90.0826C85.0056 91.4578 86.2424 92.8229 87.4283 94.2183L87.9766 93.915Z" fill="#1D1D1B"/>
<path d="M80.4795 85.7448L76.3864 81.8721L75.9402 82.1855L79.9694 86.0684L80.4795 85.7448Z" fill="#1D1D1B"/>
<path d="M72.0254 78.1813L67.3331 74.7534L67.0015 75.0669L71.6301 78.4947L72.0254 78.1813Z" fill="#1D1D1B"/>
<path d="M62.2705 71.6694C60.5236 70.7088 58.7003 69.8291 56.8259 69.0303L56.6219 69.3235C58.4835 70.1223 60.2687 71.0122 62.0028 71.9728L62.2705 71.6694Z" fill="#1D1D1B"/>
<path d="M51.0244 66.9372C49.0353 66.3305 47.0078 65.8249 44.9422 65.4204L44.8657 65.6732C46.9058 66.0878 48.9205 66.6035 50.8841 67.2203L51.0244 66.9372Z" fill="#1D1D1B"/>
<path d="M38.6943 64.4495C36.5904 64.217 34.4738 64.0855 32.3444 64.0552V64.2473C34.4611 64.2877 36.565 64.4293 38.6561 64.672L38.6943 64.4495Z" fill="#1D1D1B"/>
<path d="M25.9814 64.2676C23.8647 64.4395 21.7736 64.7125 19.6952 65.0866L19.7334 65.208C21.799 64.8338 23.8902 64.581 25.9941 64.4193L25.9814 64.2676Z" fill="#1D1D1B"/>
<path d="M13.6259 66.5835C11.6495 67.2003 9.73679 67.9486 7.9389 68.8485L7.9772 68.8889C9.77508 68.0092 11.6877 67.2711 13.6641 66.6644L13.6259 66.5835Z" fill="#1D1D1B"/>
<path d="M2.92767 72.0132L0.849258 73.9243L2.94043 72.0233L2.92767 72.0132Z" fill="#1D1D1B"/>
<path d="M1054.41 18.1904H989.472V147.267H1054.41V18.1904Z" fill="#EE6A71"/>
<path d="M1047.01 93.0801H1044.98C1044.5 93.0801 1044.1 92.6876 1044.1 92.2008V79.6878C1044.1 79.2011 1044.5 78.8086 1044.98 78.8086H1047.01C1047.49 78.8086 1047.89 79.2011 1047.89 79.6878V92.2008C1047.89 92.6876 1047.49 93.0801 1047.01 93.0801Z" fill="#F2E2C8"/>
<path d="M1046.53 87.5747C1046.53 87.2031 1046.29 86.9048 1045.98 86.9048C1045.67 86.9048 1045.42 87.2031 1045.42 87.5747C1045.42 87.873 1045.58 88.1137 1045.81 88.2027L1045.42 89.511H1046.47L1046.12 88.2027C1046.36 88.1294 1046.53 87.8834 1046.53 87.5747Z" fill="#606060"/>
<path d="M1045.86 83.9323C1047.85 83.9323 1049.47 82.3179 1049.47 80.3265C1049.47 78.3351 1047.85 76.7207 1045.86 76.7207C1043.87 76.7207 1042.26 78.3351 1042.26 80.3265C1042.26 82.3179 1043.87 83.9323 1045.86 83.9323Z" fill="#606060"/>
<path d="M1047.61 77.1709C1048.38 78.3118 1048.67 79.7824 1048.22 81.0802C1047.69 82.6293 1046.06 83.7493 1044.45 83.6446C1044.88 83.8278 1045.36 83.9324 1045.86 83.9324C1047.86 83.9324 1049.47 82.3153 1049.47 80.3266C1049.47 78.966 1048.72 77.7832 1047.61 77.1709Z" fill="#545453"/>
<path d="M991.078 147.267L990.973 115.469L990.921 83.6653L990.848 20.0639V19.8336H991.078L1021.72 19.8022L1052.36 19.8336H1052.59V20.0639L1052.52 83.6653L1052.47 115.469L1052.36 147.267L1052.26 115.469L1052.2 83.6653L1052.14 20.0639L1052.36 20.289L1021.72 20.3256L991.078 20.289L991.303 20.0639L991.235 83.6653L991.177 115.469L991.078 147.267Z" fill="#606060"/>
<path d="M971.034 147.534L982.825 147.408L994.616 147.335L1018.2 147.272L1041.78 147.335L1053.58 147.408L1065.37 147.534L1053.58 147.664L1041.78 147.738L1018.2 147.795L994.616 147.733L982.825 147.664L971.034 147.534Z" fill="#606060"/>
<g clip-path="url(#clip0_1_421)">
<path d="M931.18 119.718C932.466 119.619 934.169 119.565 935.976 119.565C937.569 119.565 940.806 119.621 942.329 119.897C943.67 120.14 943.951 120.862 943.951 121.425C943.951 121.987 943.67 122.709 942.329 122.952C940.808 123.228 937.574 123.284 935.976 123.284C934.394 123.284 931.149 123.229 929.622 122.952C928.281 122.709 928 121.987 928 121.425C928 119.948 929.722 119.829 931.18 119.718Z" fill="white"/>
<path d="M932.881 132.252C934.886 131.876 939.195 131.797 941.355 131.797C942.836 131.797 944.26 131.824 945.548 131.878C945.578 131.241 945.609 130.587 945.641 129.924C944.702 130.814 941.794 130.854 940.513 130.854C939.317 130.854 938.183 130.782 937.319 130.652C936.607 130.544 934.94 130.292 934.94 128.863C934.94 127.433 936.607 127.181 937.319 127.074C938.183 126.943 939.317 126.871 940.513 126.871C941.709 126.871 942.843 126.943 943.707 127.074C944.216 127.151 945.212 127.302 945.739 127.903C945.928 124.082 946.13 120.241 946.287 117.94C946.339 117.167 946.36 116.294 946.348 115.335C945.069 115.422 943.409 115.47 941.614 115.47C939.983 115.47 936.631 115.416 935.055 115.142C933.96 114.951 933.405 114.437 933.405 113.614C933.405 112.79 933.96 112.276 935.055 112.086C936.635 111.811 940 111.757 941.614 111.757C943.335 111.757 944.935 111.802 946.192 111.883C946.152 111.335 946.105 110.771 946.05 110.192L939.015 109.176L946.022 101.94C946.428 101.974 950.614 102.592 958.111 102.592C962.557 102.592 967.794 102.376 972.436 101.946C975.616 106.009 979.019 112.88 981.162 117.568C986 128.148 986.092 138.898 986.091 139.838V139.895C986.091 143.206 983.426 145.901 980.151 145.901C977.335 145.901 974.97 143.909 974.362 141.245H956.077C955.47 143.909 953.105 145.901 950.289 145.901C947.014 145.901 944.349 143.206 944.349 139.895C944.349 138.704 944.686 137.571 945.33 136.589C945.341 136.35 945.352 136.1 945.364 135.841C944.126 135.89 942.765 135.915 941.356 135.915C939.243 135.915 934.9 135.838 932.881 135.46C932.437 135.376 931.087 135.123 931.087 133.856C931.086 132.588 932.437 132.335 932.881 132.252Z" fill="white"/>
<path d="M980.151 144.55C977.608 144.55 975.546 142.466 975.546 139.894C975.546 137.323 977.608 135.239 980.151 135.239C982.693 135.239 984.755 137.323 984.755 139.894C984.755 142.466 982.693 144.55 980.151 144.55Z" fill="#1D1D3D"/>
<path d="M980.151 142.256C978.861 142.256 977.815 141.199 977.815 139.894C977.815 138.59 978.861 137.533 980.151 137.533C981.441 137.533 982.486 138.59 982.486 139.894C982.486 141.199 981.441 142.256 980.151 142.256Z" fill="#1D1D3D"/>
<path d="M980.151 140.841C979.634 140.841 979.215 140.417 979.215 139.894C979.215 139.372 979.634 138.948 980.151 138.948C980.668 138.948 981.087 139.372 981.087 139.894C981.087 140.417 980.668 140.841 980.151 140.841Z" fill="#1D1D3D"/>
<path d="M950.923 109.531L941.815 108.216L946.519 103.357L950.923 109.531Z" fill="#C72F55"/>
<path d="M947.619 118.033C947.22 123.904 946.519 139.895 946.519 139.895H984.755C984.755 139.895 984.855 128.862 979.95 118.135C975.045 107.406 971.843 103.358 971.843 103.358C971.843 103.358 957.829 104.674 946.519 103.358C946.519 103.358 946.519 103.359 946.519 103.361C946.55 103.545 948.015 112.226 947.619 118.033Z" fill="#FF605B"/>
<path d="M965.97 111.96C965.97 111.96 972.909 116.175 977.113 122.232C977.113 122.232 971.174 131.123 967.905 133.552C967.905 133.552 960.164 123.732 958.029 122.232C958.029 122.232 963.968 114.322 965.97 111.96Z" fill="#FDF1DE"/>
<path d="M962.388 122.232H972.758V124.069H962.388V122.232Z" fill="#C72F55"/>
<path d="M962.165 124.068H972.982C973.098 124.068 973.192 124.164 973.192 124.281V125.323C973.192 125.44 973.098 125.535 972.982 125.535H962.165C962.049 125.535 961.955 125.44 961.955 125.323V124.281C961.955 124.164 962.049 124.068 962.165 124.068Z" fill="#ED6C4D"/>
<path d="M972.34 121.08C972.34 121.08 973.479 121.993 973.78 122.515C974.081 123.036 972.813 123.101 972.178 122.797C971.544 122.493 971.222 122.037 970.427 122.471C969.632 122.906 969.116 123.406 968.062 122.689C967.009 121.972 966.73 122.716 965.87 123.05C965.01 123.384 964.602 122.471 964.043 122.45C963.485 122.428 962.84 123.254 961.765 123.058C960.69 122.863 960.586 122.556 961.529 121.993C962.471 121.431 962.818 120.798 962.818 120.798L972.34 121.08Z" fill="#7AD001"/>
<path d="M972.186 121.558H962.962C962.2 121.558 961.712 120.731 962.081 120.058C962.797 118.752 964.346 117.067 967.569 117.059C970.816 117.051 972.36 118.75 973.069 120.061C973.433 120.736 972.946 121.558 972.186 121.558Z" fill="#ED6C4D"/>
<path d="M946.518 139.895H954.626C954.626 139.895 956.828 135.644 954.626 127.209C952.44 118.842 946.609 103.598 946.519 103.36C946.55 103.545 948.014 112.225 947.619 118.033C947.219 123.904 946.518 139.895 946.518 139.895Z" fill="#C72F55"/>
<path d="M950.288 144.55C947.745 144.55 945.684 142.466 945.684 139.894C945.684 137.323 947.745 135.239 950.288 135.239C952.831 135.239 954.893 137.323 954.893 139.894C954.893 142.466 952.831 144.55 950.288 144.55Z" fill="#1D1D3D"/>
<path d="M950.288 142.256C948.998 142.256 947.953 141.199 947.953 139.894C947.953 138.59 948.998 137.533 950.288 137.533C951.578 137.533 952.624 138.59 952.624 139.894C952.624 141.199 951.578 142.256 950.288 142.256Z" fill="#EAE5DB"/>
<path d="M950.289 140.841C949.772 140.841 949.353 140.417 949.353 139.894C949.353 139.372 949.772 138.948 950.289 138.948C950.806 138.948 951.225 139.372 951.225 139.894C951.225 140.417 950.806 140.841 950.289 140.841Z" fill="#FFB020"/>
<path d="M940.513 129.504C938.173 129.504 936.276 129.217 936.276 128.863C936.276 128.509 938.173 128.222 940.513 128.222C942.853 128.222 944.75 128.509 944.75 128.863C944.75 129.217 942.853 129.504 940.513 129.504Z" fill="#FC8019"/>
<path d="M935.975 121.933C932.308 121.933 929.336 121.705 929.336 121.424C929.336 121.143 932.308 120.915 935.975 120.915C939.642 120.915 942.614 121.143 942.614 121.424C942.614 121.705 939.642 121.933 935.975 121.933Z" fill="#FC8019"/>
<path d="M941.614 114.12C937.818 114.12 934.741 113.893 934.741 113.614C934.741 113.334 937.818 113.108 941.614 113.108C945.41 113.108 948.487 113.334 948.487 113.614C948.487 113.893 945.41 114.12 941.614 114.12Z" fill="#FC8019"/>
<path d="M941.356 134.564C936.422 134.564 932.423 134.247 932.423 133.856C932.423 133.465 936.422 133.147 941.356 133.147C946.29 133.147 950.289 133.465 950.289 133.856C950.289 134.247 946.29 134.564 941.356 134.564Z" fill="#FC8019"/>
</g>
<path d="M1009.21 0.752651C1003.71 0.716017 999.211 5.48887 999.174 11.4078C999.132 17.332 1009 33.1107 1009 33.1107C1009 33.1107 1019.07 17.4629 1019.11 11.5387C1019.15 5.6197 1014.72 0.789285 1009.21 0.752651ZM1009.11 16.4528C1006.14 16.4319 1003.76 13.9722 1003.78 10.963C1003.81 7.94857 1006.22 5.52027 1009.18 5.5412C1012.14 5.56214 1014.52 8.02183 1014.5 11.031C1014.48 14.0455 1012.07 16.4738 1009.11 16.4528Z" fill="#FDB93C"/>
<path d="M1011.52 37.1667C1011.52 38.1244 1010.74 38.9042 1009.78 38.9042C1008.82 38.9042 1008.04 38.1244 1008.04 37.1667C1008.04 36.209 1008.82 35.4292 1009.78 35.4292C1010.75 35.4292 1011.52 36.209 1011.52 37.1667Z" fill="#F2E2C8"/>
<defs>
<clipPath id="clip0_1_421">
<rect width="58.0907" height="43.9605" fill="white" transform="matrix(-1 0 0 1 986.091 101.94)"/>
</clipPath>
</defs>
</svg>
