<svg width="47" height="48" viewBox="0 0 47 48" fill="none" xmlns="http://www.w3.org/2000/svg">
<rect x="13.6111" y="10.4907" width="18.4569" height="18.4569" rx="9.22846" fill="white"/>
<path d="M25.8477 24.4888C25.734 24.4888 25.6202 24.4437 25.5335 24.3536L21.6417 20.3124C21.4681 20.1321 21.4681 19.8399 21.6417 19.6597C21.8153 19.4795 22.0966 19.4795 22.2703 19.6597L26.1619 23.7009C26.3356 23.8812 26.3356 24.1734 26.1619 24.3536C26.0751 24.4437 25.9614 24.4888 25.8477 24.4888Z" fill="#3B6BAB"/>
<path d="M19.8149 36.0803C18.4993 33.7143 16.3431 31.9565 14.3735 30.0992C11.6872 27.5663 10.0002 23.9109 10.0002 19.8462C10.0002 12.1994 15.9704 6 23.3343 6C30.6983 6 36.6684 12.1994 36.6684 19.8462C36.6684 23.911 34.9815 27.5663 32.2952 30.0993C30.3255 31.9565 28.1693 33.7143 26.8538 36.0803C25.4344 38.6329 23.7513 41.66 23.3343 42.4099C22.9172 41.6597 21.2342 38.6329 19.8149 36.0803ZM31.7793 19.8462C31.7793 15.0028 27.9986 11.0769 23.3343 11.0769C18.6701 11.0769 14.8894 15.0028 14.8894 19.8462C14.8894 24.6895 18.6701 28.6154 23.3343 28.6154C27.9986 28.6154 31.7793 24.6895 31.7793 19.8462Z" fill="#EF7822"/>
<path d="M21.5911 16.5764C22.5983 17.6223 22.7618 19.149 21.9555 19.9853C21.1493 20.8226 19.6799 20.6527 18.6718 19.6069C17.6646 18.561 17.5011 17.0343 18.3073 16.197C19.1136 15.3607 20.583 15.5296 21.5911 16.5764Z" fill="#B5DBFF"/>
<path d="M29.1889 17.7649C29.0153 17.5847 28.7339 17.5847 28.5603 17.7649L26.1282 20.2904C25.9072 20.52 25.5811 20.5844 25.4302 20.4277L25.2473 20.238L27.1221 18.2912C27.2957 18.111 27.2957 17.8187 27.1221 17.6385C26.9485 17.4584 26.6671 17.4584 26.4935 17.6385L24.6185 19.5856L24.4348 19.3952C24.3492 19.3064 24.3478 19.1767 24.3545 19.1072C24.3692 18.9549 24.4472 18.7955 24.5682 18.6697L27.0003 16.1442C27.1738 15.9639 27.1738 15.6716 27.0003 15.4915C26.8267 15.3113 26.5453 15.3113 26.3717 15.4915L23.9397 18.017C23.6721 18.2948 23.5053 18.6492 23.47 19.015C23.4318 19.4098 23.5544 19.7863 23.8063 20.0479L23.9898 20.2383L20.6558 23.7003C20.4822 23.8806 20.4822 24.1728 20.6558 24.353C20.7427 24.4431 20.8564 24.4881 20.9702 24.4881C21.084 24.4881 21.1977 24.4431 21.2845 24.353L24.6187 20.8906L24.8019 21.0807C25.0309 21.3184 25.3375 21.435 25.658 21.435C26.041 21.435 26.4436 21.2684 26.7569 20.9432L29.189 18.4176C29.3626 18.2373 29.3626 17.9451 29.1889 17.7649Z" fill="#00467D"/>
</svg>
