<svg width="239" height="271" viewBox="0 0 239 271" fill="none" xmlns="http://www.w3.org/2000/svg">
<path d="M209.5 80.3222C209.5 133.717 176.542 177.833 133.804 184.743C137.094 183.44 140.322 181.95 143.491 180.274C147.486 178.163 151.358 175.73 155.082 172.991C158.796 170.256 162.324 167.171 165.634 163.765C168.926 160.361 171.943 156.588 174.644 152.498C177.316 148.415 179.609 143.994 181.484 139.312C179.377 143.806 176.869 148.01 174.004 151.848C171.142 155.648 167.988 159.112 164.584 162.195C161.187 165.255 157.594 167.986 153.839 170.363C150.092 172.731 146.217 174.792 142.241 176.532C134.317 180.002 126.076 182.312 117.695 183.413C113.951 183.911 110.183 184.108 106.417 184.002C71.0727 176.305 43.1198 143.007 36.256 100.617L36.3966 100.603C35.4878 93.4699 35.2689 86.2342 35.7444 79.0407C36.207 71.7631 37.451 64.5886 39.4452 57.6967C41.4491 50.7206 44.3962 44.1918 48.1672 38.374C50.0881 35.4445 52.2433 32.7495 54.6014 30.3277C56.9914 27.8788 59.5853 25.7349 62.3419 23.9301C59.3782 25.3142 56.5415 27.0645 53.8771 29.153C51.1828 31.2693 48.6675 33.6993 46.3674 36.4081C43.6687 39.5935 41.2448 43.1004 39.1328 46.8748C44.2086 28.6488 53.3202 12.4404 65.4834 0.000427246H178.654C188.332 9.88152 196.106 22.1869 201.433 36.0591C206.76 49.9313 209.513 65.0365 209.5 80.3222Z" fill="white" fill-opacity="0.1"/>
<g clip-path="url(#clip0_1490_1228)">
<path d="M96.0616 258.942L95.3147 257.342L96.44 255.946L95.4771 254.212L97.1231 253.104L96.1203 251.093L97.5128 249.881L96.8559 247.786L96.0803 248.04L96.5724 249.606L95.1024 250.886L96.0666 252.817L94.3931 253.945L95.4546 255.859L94.3556 257.222L95.0487 258.705L94.1445 259.445L94.6528 260.096L96.0616 258.942Z" fill="white"/>
<path d="M77.6086 243.769L77.2976 245.329L74.7861 245.097L74.0567 247.323L72.1484 247.463L72.2184 248.451L74.7698 248.263L75.4605 246.153L78.0731 246.396L78.5402 244.047L77.6086 243.769Z" fill="#FFB800"/>
<path d="M96.3761 156.212L96.0652 157.773L93.5537 157.54L92.8243 159.767L90.916 159.906L90.986 160.895L93.5374 160.707L94.2281 158.597L96.8407 158.839L97.3078 156.49L96.3761 156.212Z" fill="#FFB800"/>
<path d="M161.117 257.739L160.807 259.301L158.295 259.068L157.565 261.294L155.658 261.433L155.727 262.422L158.278 262.234L158.97 260.125L161.583 260.367L162.05 258.018L161.117 257.739Z" fill="#FFB800"/>
<path d="M239.486 182.966L239.176 184.528L236.664 184.294L235.934 186.521L234.027 186.66L234.096 187.648L236.648 187.461L237.339 185.352L239.952 185.593L240.419 183.244L239.486 182.966Z" fill="#FFB800"/>
<path d="M48.707 258.296L48.677 255.814L50.659 254.382C50.885 254.218 50.8301 253.862 50.5653 253.778L48.2474 253.039L47.528 250.669C47.4456 250.399 47.0972 250.342 46.9373 250.573L45.5348 252.599L43.1082 252.566C42.8322 252.562 42.6711 252.884 42.836 253.111L44.2872 255.101L43.5066 257.451C43.418 257.719 43.6677 257.975 43.93 257.884L46.2292 257.088L48.1737 258.574C48.3948 258.743 48.7107 258.579 48.707 258.297V258.296Z" fill="#DC4437"/>
<path d="M15.8952 263.29L16.9792 261.88L16.4584 260.167C16.3985 259.971 16.5846 259.791 16.7719 259.861L18.4179 260.481L19.8504 259.445C20.014 259.327 20.2376 259.451 20.2301 259.656L20.1626 261.449L21.5689 262.522C21.7287 262.645 21.6825 262.901 21.4902 262.956L19.803 263.446L19.2397 265.144C19.176 265.338 18.9225 265.372 18.8113 265.203L17.8347 263.712L16.08 263.689C15.8802 263.687 15.7703 263.451 15.8939 263.291L15.8952 263.29Z" fill="white"/>
<path d="M210.148 274.547L211.232 273.137L210.712 271.424C210.653 271.229 210.838 271.049 211.025 271.119L212.671 271.739L214.102 270.703C214.266 270.585 214.491 270.709 214.482 270.914L214.415 272.707L215.821 273.78C215.981 273.902 215.934 274.159 215.742 274.214L214.055 274.703L213.492 276.402C213.428 276.596 213.174 276.629 213.063 276.461L212.087 274.97L210.332 274.947C210.132 274.945 210.022 274.708 210.146 274.549L210.148 274.547Z" fill="#F9F9F9"/>
<path d="M-4.82425 163.649L-4.2173 161.966L-5.22889 160.5C-5.34379 160.332 -5.22265 160.104 -5.02283 160.111L-3.26939 160.182L-2.21908 158.745C-2.09919 158.581 -1.84816 158.628 -1.79446 158.825L-1.31863 160.552L0.342382 161.129C0.530964 161.196 0.564685 161.454 0.398583 161.567L-1.06011 162.564L-1.08384 164.357C-1.08634 164.561 -1.31738 164.674 -1.47474 164.547L-2.85227 163.436L-4.52827 163.967C-4.71935 164.027 -4.89544 163.838 -4.8255 163.647L-4.82425 163.649Z" fill="#FFD800"/>
<path d="M118.7 256.003L117.454 255.589L116.581 257.567L114.686 257.192L113.797 258.563L113.119 258.102L114.308 256.269L116.104 256.624L117.011 254.567L118.886 255.189L118.7 256.003Z" fill="white"/>
<path d="M187.995 179.538L186.749 179.124L185.876 181.102L183.981 180.727L183.092 182.098L182.414 181.637L183.603 179.804L185.399 180.159L186.306 178.103L188.181 178.725L187.995 179.538Z" fill="white"/>
<path d="M182.124 144.495L180.197 145.818C179.988 145.962 180.039 146.315 180.283 146.418L182.535 147.355L183.233 149.852C183.309 150.123 183.631 150.203 183.779 149.989L185.142 148.009L187.5 148.229C187.755 148.253 187.905 147.949 187.751 147.714L186.342 145.553L187.103 143.191C187.186 142.936 186.954 142.666 186.712 142.736L184.478 143.38L182.59 141.7C182.385 141.519 182.094 141.656 182.096 141.933L182.124 144.493V144.495Z" fill="white"/>
</g>
<defs>
<clipPath id="clip0_1490_1228">
<rect width="239" height="135" fill="white" transform="translate(0 135.979)"/>
</clipPath>
</defs>
</svg>
