<svg width="417" height="88" viewBox="0 0 417 88" fill="none" xmlns="http://www.w3.org/2000/svg">
<path d="M0 0L2.82809 0.119213V0.137554L0 0Z" fill="#1D1D1B"/>
<path d="M8.45082 0.651367L13.982 1.62343L13.9593 1.69679L8.43945 0.706391L8.45082 0.651367Z" fill="#1D1D1B"/>
<path d="M19.3648 3.06299C21.1252 3.62238 22.8402 4.25514 24.5212 4.97043L24.4417 5.09882C22.7835 4.38352 21.0684 3.73243 19.3193 3.16386L19.3648 3.06299Z" fill="#1D1D1B"/>
<path d="M29.3945 7.30859L33.9603 10.0139L33.8013 10.1698L29.2695 7.45532L29.3945 7.30859Z" fill="#1D1D1B"/>
<path d="M38.2533 13.0034L42.308 16.2039L42.0581 16.3873L38.0488 13.1777L38.2533 13.0034Z" fill="#1D1D1B"/>
<path d="M46.1573 19.5513L49.8713 23.0085L49.5533 23.2194L45.8848 19.753L46.1573 19.5513Z" fill="#1D1D1B"/>
<path d="M53.4947 26.521L57.0496 30.0699L56.6635 30.3267L53.1426 26.7503L53.4947 26.521Z" fill="#1D1D1B"/>
<path d="M60.5934 33.6372L64.137 37.2045L63.6941 37.4888L60.1846 33.9031L60.5934 33.6372Z" fill="#1D1D1B"/>
<path d="M67.7043 40.7441L71.3161 44.2656L70.8504 44.5682L67.25 41.0468L67.7043 40.7441Z" fill="#1D1D1B"/>
<path d="M74.9719 47.7412L78.7086 51.1709L78.2429 51.5102L74.5176 48.0622L74.9719 47.7412Z" fill="#1D1D1B"/>
<path d="M82.5145 54.5454L86.3988 57.8651L85.9332 58.2227L82.0488 54.8939L82.5145 54.5454Z" fill="#1D1D1B"/>
<path d="M90.3622 61.1118L94.4509 64.2573L93.9852 64.6608L89.8965 61.497L90.3622 61.1118Z" fill="#1D1D1B"/>
<path d="M98.6877 67.2739L103.072 70.1443L102.64 70.5936L98.2334 67.6958L98.6877 67.2739Z" fill="#1D1D1B"/>
<path d="M107.604 72.8589L112.272 75.4174L111.874 75.9126L107.184 73.3357L107.604 72.8589Z" fill="#1D1D1B"/>
<path d="M117.098 77.7832L122.05 79.9474L121.71 80.4976L116.724 78.3059L117.098 77.7832Z" fill="#1D1D1B"/>
<path d="M127.161 81.8916L132.397 83.5698L132.125 84.1659L126.854 82.4602L127.161 81.8916Z" fill="#1D1D1B"/>
<path d="M137.759 84.9546L143.233 86.0184L143.074 86.6603L137.543 85.5782L137.759 84.9546Z" fill="#1D1D1B"/>
<path d="M148.798 86.7153L154.409 87.0088L154.386 87.6874L148.707 87.3756L148.798 86.7153Z" fill="#1D1D1B"/>
<path d="M160.03 86.908L165.664 86.5962L165.743 87.2931L160.076 87.5958L160.03 86.908Z" fill="#1D1D1B"/>
<path d="M171.275 86.1008L176.852 85.4038L177.011 86.1099L171.389 86.8069L171.275 86.1008Z" fill="#1D1D1B"/>
<path d="M182.372 84.4685L187.812 83.2764L188.074 83.9917L182.577 85.1746L182.372 84.4685Z" fill="#1D1D1B"/>
<path d="M193.15 81.8369L198.364 80.1221L198.75 80.819L193.468 82.5431L193.15 81.8369Z" fill="#1D1D1B"/>
<path d="M203.44 78.1505L208.381 75.9404L208.869 76.619L203.883 78.8383L203.44 78.1505Z" fill="#1D1D1B"/>
<path d="M213.174 73.5377L217.842 70.9883L218.421 71.6486L213.708 74.2071L213.174 73.5377Z" fill="#1D1D1B"/>
<path d="M222.441 68.3289L227.007 65.6328L227.609 66.3023L223.043 68.9984L222.441 68.3289Z" fill="#1D1D1B"/>
<path d="M231.573 62.9367C233.118 62.0471 234.651 61.1576 236.15 60.2681L236.786 60.9467C235.253 61.8545 233.708 62.7349 232.175 63.6153L231.573 62.9367Z" fill="#1D1D1B"/>
<path d="M240.512 57.3885L244.544 54.2339L245.327 54.8391L241.216 58.0396L240.512 57.3885Z" fill="#1D1D1B"/>
<path d="M248.155 50.7856C249.28 49.5843 250.302 48.328 251.211 47.0166L252.187 47.4568C251.256 48.8048 250.188 50.0979 249.041 51.3267L248.155 50.7856Z" fill="#1D1D1B"/>
<path d="M253.482 42.9175C254.084 41.5052 254.505 40.0471 254.698 38.5615L255.822 38.6624C255.618 40.2214 255.175 41.7437 254.55 43.2109L253.482 42.9175Z" fill="#1D1D1B"/>
<path d="M254.584 34.123C254.436 33.3893 254.243 32.6649 253.982 31.9588C253.732 31.2435 253.38 30.5557 253.039 29.8587L254.061 29.5103C254.413 30.2255 254.788 30.95 255.049 31.702C255.333 32.454 255.538 33.2151 255.697 33.9854L254.584 34.123Z" fill="#1D1D1B"/>
<path d="M250.324 25.98C249.223 24.797 247.916 23.7424 246.395 22.9446L246.985 22.2109C248.632 23.073 250.04 24.2009 251.199 25.4481L250.324 25.98Z" fill="#1D1D1B"/>
<path d="M241.351 21.3854C240.443 21.3029 239.546 21.2112 238.626 21.257C237.717 21.2845 236.797 21.3762 235.9 21.523L235.695 20.6885C236.649 20.5326 237.615 20.4317 238.592 20.4042C239.568 20.3583 240.545 20.4409 241.522 20.5326L241.351 21.3854Z" fill="#1D1D1B"/>
<path d="M230.711 22.9996C229.064 23.6782 227.53 24.5219 226.167 25.5215L225.475 24.9163C226.906 23.8525 228.518 22.963 230.234 22.2568L230.711 22.9996Z" fill="#1D1D1B"/>
<path d="M222.839 28.9966C222.442 29.6477 222.101 30.363 221.794 31.0599C221.499 31.7661 221.249 32.4905 221.045 33.215L220.079 33.0407C220.284 32.2796 220.545 31.5368 220.851 30.794C221.169 30.0512 221.51 29.3451 221.942 28.6206L222.839 28.9966Z" fill="#1D1D1B"/>
<path d="M220.397 37.681C220.363 39.1758 220.511 40.6798 220.806 42.1654L219.852 42.2938C219.546 40.7715 219.387 39.2217 219.409 37.6719L220.397 37.681Z" fill="#1D1D1B"/>
<path d="M222.135 46.54L223.089 48.6676C223.259 49.016 223.475 49.3462 223.657 49.6947L224.236 50.7126L223.407 51.0611L222.805 50.0065C222.612 49.658 222.384 49.3095 222.214 48.9519L221.237 46.7785L222.135 46.54Z" fill="#1D1D1B"/>
<path d="M227.132 54.582L230.494 58.2227L229.79 58.6904L226.371 55.0039L227.132 54.582Z" fill="#1D1D1B"/>
<path d="M234.151 61.6802L238.047 64.9724L237.422 65.4767L233.492 62.1662L234.151 61.6802Z" fill="#1D1D1B"/>
<path d="M242.148 68.0996L246.452 71.0341L245.93 71.5752L241.568 68.6223L242.148 68.0996Z" fill="#1D1D1B"/>
<path d="M251.007 73.7026L253.392 74.8856L255.856 75.9952L255.459 76.5822L252.983 75.4725L250.541 74.2712L251.007 73.7026Z" fill="#1D1D1B"/>
<path d="M260.843 78.1504L265.885 80.1954L265.533 80.7823L260.468 78.7373L260.843 78.1504Z" fill="#1D1D1B"/>
<path d="M271.007 82.1118L276.221 83.845L275.948 84.4319L270.689 82.6895L271.007 82.1118Z" fill="#1D1D1B"/>
<path d="M281.548 85.3306C283.342 85.7707 285.16 86.1467 287 86.431L286.863 87.0271C284.989 86.752 283.149 86.3668 281.332 85.9266L281.548 85.3306Z" fill="#1D1D1B"/>
<path d="M292.575 86.8895L298.209 86.8804L298.243 87.4581L292.553 87.4856L292.575 86.8895Z" fill="#1D1D1B"/>
<path d="M303.809 86.4404C305.66 86.2111 307.5 85.9085 309.317 85.5142L309.499 86.0552C307.659 86.4587 305.796 86.7705 303.922 87.0089L303.809 86.4404Z" fill="#1D1D1B"/>
<path d="M314.633 84.0653C316.371 83.4967 318.051 82.8273 319.687 82.0845L320.016 82.5522C318.37 83.3133 316.654 83.9919 314.894 84.5696L314.633 84.0653Z" fill="#1D1D1B"/>
<path d="M324.389 79.5992C325.888 78.6913 327.319 77.7101 328.693 76.6738L329.136 77.0498C327.762 78.1044 326.308 79.104 324.786 80.021L324.389 79.5992Z" fill="#1D1D1B"/>
<path d="M332.578 73.3907L336.122 69.8418L336.61 70.1352L333.055 73.7209L332.578 73.3907Z" fill="#1D1D1B"/>
<path d="M339.393 66.1276C340.449 64.8713 341.562 63.6241 342.641 62.377L343.118 62.6521C342.039 63.8992 340.937 65.1372 339.881 66.4028L339.393 66.1276Z" fill="#1D1D1B"/>
<path d="M346.07 58.7183L349.716 55.2061L350.114 55.4903L346.525 59.0118L346.07 58.7183Z" fill="#1D1D1B"/>
<path d="M353.602 51.8588L357.781 48.75L358.077 49.0343L353.954 52.143L353.602 51.8588Z" fill="#1D1D1B"/>
<path d="M362.29 45.953C363.846 45.0819 365.47 44.284 367.14 43.5596L367.322 43.8255C365.663 44.55 364.073 45.357 362.529 46.2282L362.29 45.953Z" fill="#1D1D1B"/>
<path d="M372.307 41.6612C374.078 41.111 375.884 40.6525 377.724 40.2856L377.792 40.5149C375.975 40.8909 374.181 41.3586 372.432 41.918L372.307 41.6612Z" fill="#1D1D1B"/>
<path d="M383.29 39.405C385.164 39.1941 387.049 39.0749 388.946 39.0474V39.2216C387.061 39.2583 385.187 39.3867 383.324 39.6068L383.29 39.405Z" fill="#1D1D1B"/>
<path d="M394.614 39.2402C396.499 39.3961 398.362 39.6437 400.213 39.983L400.179 40.0931C398.339 39.7538 396.477 39.5245 394.603 39.3778L394.614 39.2402Z" fill="#1D1D1B"/>
<path d="M405.619 41.3403C407.379 41.8997 409.083 42.5783 410.685 43.3945L410.65 43.4312C409.049 42.6334 407.345 41.9639 405.585 41.4137L405.619 41.3403Z" fill="#1D1D1B"/>
<path d="M415.149 46.2646L417 47.9979L415.138 46.2738L415.149 46.2646Z" fill="#1D1D1B"/>
</svg>
